<mxfile host="app.diagrams.net" modified="2020-10-26T16:03:09.554Z" agent="5.0 (Windows NT 10.0; Win64; x64) AppleWebKit/537.36 (KHTML, like Gecko) Chrome/86.0.4240.111 Safari/537.36" etag="ce4U3MGPmLN2BCkxmubI" version="13.8.2" type="github">
  <diagram id="R2lEEEUBdFMjLlhIrx00" name="Page-1">
    <mxGraphModel dx="1422" dy="738" grid="1" gridSize="10" guides="1" tooltips="1" connect="1" arrows="1" fold="1" page="1" pageScale="1" pageWidth="850" pageHeight="1100" math="0" shadow="0" extFonts="Permanent Marker^https://fonts.googleapis.com/css?family=Permanent+Marker">
      <root>
        <mxCell id="0" />
        <mxCell id="1" parent="0" />
        <mxCell id="3Gkvo5IfDIDSTP5R8mcX-2" value="Department" style="shape=table;startSize=30;container=1;collapsible=1;childLayout=tableLayout;fixedRows=1;rowLines=0;fontStyle=1;align=center;resizeLast=1;" vertex="1" parent="1">
          <mxGeometry x="230" y="50" width="180" height="160" as="geometry" />
        </mxCell>
        <mxCell id="3Gkvo5IfDIDSTP5R8mcX-3" value="" style="shape=partialRectangle;collapsible=0;dropTarget=0;pointerEvents=0;fillColor=none;top=0;left=0;bottom=1;right=0;points=[[0,0.5],[1,0.5]];portConstraint=eastwest;" vertex="1" parent="3Gkvo5IfDIDSTP5R8mcX-2">
          <mxGeometry y="30" width="180" height="30" as="geometry" />
        </mxCell>
        <mxCell id="3Gkvo5IfDIDSTP5R8mcX-4" value="PK" style="shape=partialRectangle;connectable=0;fillColor=none;top=0;left=0;bottom=0;right=0;fontStyle=1;overflow=hidden;" vertex="1" parent="3Gkvo5IfDIDSTP5R8mcX-3">
          <mxGeometry width="30" height="30" as="geometry" />
        </mxCell>
        <mxCell id="3Gkvo5IfDIDSTP5R8mcX-5" value="Department_Num" style="shape=partialRectangle;connectable=0;fillColor=none;top=0;left=0;bottom=0;right=0;align=left;spacingLeft=6;fontStyle=5;overflow=hidden;" vertex="1" parent="3Gkvo5IfDIDSTP5R8mcX-3">
          <mxGeometry x="30" width="150" height="30" as="geometry" />
        </mxCell>
        <mxCell id="3Gkvo5IfDIDSTP5R8mcX-6" value="" style="shape=partialRectangle;collapsible=0;dropTarget=0;pointerEvents=0;fillColor=none;top=0;left=0;bottom=0;right=0;points=[[0,0.5],[1,0.5]];portConstraint=eastwest;" vertex="1" parent="3Gkvo5IfDIDSTP5R8mcX-2">
          <mxGeometry y="60" width="180" height="30" as="geometry" />
        </mxCell>
        <mxCell id="3Gkvo5IfDIDSTP5R8mcX-7" value="" style="shape=partialRectangle;connectable=0;fillColor=none;top=0;left=0;bottom=0;right=0;editable=1;overflow=hidden;" vertex="1" parent="3Gkvo5IfDIDSTP5R8mcX-6">
          <mxGeometry width="30" height="30" as="geometry" />
        </mxCell>
        <mxCell id="3Gkvo5IfDIDSTP5R8mcX-8" value="Name" style="shape=partialRectangle;connectable=0;fillColor=none;top=0;left=0;bottom=0;right=0;align=left;spacingLeft=6;overflow=hidden;" vertex="1" parent="3Gkvo5IfDIDSTP5R8mcX-6">
          <mxGeometry x="30" width="150" height="30" as="geometry" />
        </mxCell>
        <mxCell id="3Gkvo5IfDIDSTP5R8mcX-9" value="" style="shape=partialRectangle;collapsible=0;dropTarget=0;pointerEvents=0;fillColor=none;top=0;left=0;bottom=0;right=0;points=[[0,0.5],[1,0.5]];portConstraint=eastwest;" vertex="1" parent="3Gkvo5IfDIDSTP5R8mcX-2">
          <mxGeometry y="90" width="180" height="30" as="geometry" />
        </mxCell>
        <mxCell id="3Gkvo5IfDIDSTP5R8mcX-10" value="" style="shape=partialRectangle;connectable=0;fillColor=none;top=0;left=0;bottom=0;right=0;editable=1;overflow=hidden;" vertex="1" parent="3Gkvo5IfDIDSTP5R8mcX-9">
          <mxGeometry width="30" height="30" as="geometry" />
        </mxCell>
        <mxCell id="3Gkvo5IfDIDSTP5R8mcX-11" value="Mailbox_Num" style="shape=partialRectangle;connectable=0;fillColor=none;top=0;left=0;bottom=0;right=0;align=left;spacingLeft=6;overflow=hidden;" vertex="1" parent="3Gkvo5IfDIDSTP5R8mcX-9">
          <mxGeometry x="30" width="150" height="30" as="geometry" />
        </mxCell>
        <mxCell id="3Gkvo5IfDIDSTP5R8mcX-12" value="" style="shape=partialRectangle;collapsible=0;dropTarget=0;pointerEvents=0;fillColor=none;top=0;left=0;bottom=0;right=0;points=[[0,0.5],[1,0.5]];portConstraint=eastwest;" vertex="1" parent="3Gkvo5IfDIDSTP5R8mcX-2">
          <mxGeometry y="120" width="180" height="30" as="geometry" />
        </mxCell>
        <mxCell id="3Gkvo5IfDIDSTP5R8mcX-13" value="" style="shape=partialRectangle;connectable=0;fillColor=none;top=0;left=0;bottom=0;right=0;editable=1;overflow=hidden;" vertex="1" parent="3Gkvo5IfDIDSTP5R8mcX-12">
          <mxGeometry width="30" height="30" as="geometry" />
        </mxCell>
        <mxCell id="3Gkvo5IfDIDSTP5R8mcX-14" value="Extension" style="shape=partialRectangle;connectable=0;fillColor=none;top=0;left=0;bottom=0;right=0;align=left;spacingLeft=6;overflow=hidden;" vertex="1" parent="3Gkvo5IfDIDSTP5R8mcX-12">
          <mxGeometry x="30" width="150" height="30" as="geometry" />
        </mxCell>
        <mxCell id="3Gkvo5IfDIDSTP5R8mcX-15" value="Employee" style="shape=table;startSize=30;container=1;collapsible=1;childLayout=tableLayout;fixedRows=1;rowLines=0;fontStyle=1;align=center;resizeLast=1;" vertex="1" parent="1">
          <mxGeometry x="230" y="290" width="180" height="160" as="geometry" />
        </mxCell>
        <mxCell id="3Gkvo5IfDIDSTP5R8mcX-16" value="" style="shape=partialRectangle;collapsible=0;dropTarget=0;pointerEvents=0;fillColor=none;top=0;left=0;bottom=1;right=0;points=[[0,0.5],[1,0.5]];portConstraint=eastwest;" vertex="1" parent="3Gkvo5IfDIDSTP5R8mcX-15">
          <mxGeometry y="30" width="180" height="30" as="geometry" />
        </mxCell>
        <mxCell id="3Gkvo5IfDIDSTP5R8mcX-17" value="PK" style="shape=partialRectangle;connectable=0;fillColor=none;top=0;left=0;bottom=0;right=0;fontStyle=1;overflow=hidden;" vertex="1" parent="3Gkvo5IfDIDSTP5R8mcX-16">
          <mxGeometry width="30" height="30" as="geometry" />
        </mxCell>
        <mxCell id="3Gkvo5IfDIDSTP5R8mcX-18" value="Employee_Num" style="shape=partialRectangle;connectable=0;fillColor=none;top=0;left=0;bottom=0;right=0;align=left;spacingLeft=6;fontStyle=5;overflow=hidden;" vertex="1" parent="3Gkvo5IfDIDSTP5R8mcX-16">
          <mxGeometry x="30" width="150" height="30" as="geometry" />
        </mxCell>
        <mxCell id="3Gkvo5IfDIDSTP5R8mcX-25" value="" style="shape=partialRectangle;collapsible=0;dropTarget=0;pointerEvents=0;fillColor=none;top=0;left=0;bottom=0;right=0;points=[[0,0.5],[1,0.5]];portConstraint=eastwest;" vertex="1" parent="3Gkvo5IfDIDSTP5R8mcX-15">
          <mxGeometry y="60" width="180" height="30" as="geometry" />
        </mxCell>
        <mxCell id="3Gkvo5IfDIDSTP5R8mcX-26" value="" style="shape=partialRectangle;connectable=0;fillColor=none;top=0;left=0;bottom=0;right=0;editable=1;overflow=hidden;" vertex="1" parent="3Gkvo5IfDIDSTP5R8mcX-25">
          <mxGeometry width="30" height="30" as="geometry" />
        </mxCell>
        <mxCell id="3Gkvo5IfDIDSTP5R8mcX-27" value="Department_Num" style="shape=partialRectangle;connectable=0;fillColor=none;top=0;left=0;bottom=0;right=0;align=left;spacingLeft=6;overflow=hidden;" vertex="1" parent="3Gkvo5IfDIDSTP5R8mcX-25">
          <mxGeometry x="30" width="150" height="30" as="geometry" />
        </mxCell>
        <mxCell id="3Gkvo5IfDIDSTP5R8mcX-19" value="" style="shape=partialRectangle;collapsible=0;dropTarget=0;pointerEvents=0;fillColor=none;top=0;left=0;bottom=0;right=0;points=[[0,0.5],[1,0.5]];portConstraint=eastwest;" vertex="1" parent="3Gkvo5IfDIDSTP5R8mcX-15">
          <mxGeometry y="90" width="180" height="30" as="geometry" />
        </mxCell>
        <mxCell id="3Gkvo5IfDIDSTP5R8mcX-20" value="" style="shape=partialRectangle;connectable=0;fillColor=none;top=0;left=0;bottom=0;right=0;editable=1;overflow=hidden;" vertex="1" parent="3Gkvo5IfDIDSTP5R8mcX-19">
          <mxGeometry width="30" height="30" as="geometry" />
        </mxCell>
        <mxCell id="3Gkvo5IfDIDSTP5R8mcX-21" value="Name" style="shape=partialRectangle;connectable=0;fillColor=none;top=0;left=0;bottom=0;right=0;align=left;spacingLeft=6;overflow=hidden;" vertex="1" parent="3Gkvo5IfDIDSTP5R8mcX-19">
          <mxGeometry x="30" width="150" height="30" as="geometry" />
        </mxCell>
        <mxCell id="3Gkvo5IfDIDSTP5R8mcX-22" value="" style="shape=partialRectangle;collapsible=0;dropTarget=0;pointerEvents=0;fillColor=none;top=0;left=0;bottom=0;right=0;points=[[0,0.5],[1,0.5]];portConstraint=eastwest;" vertex="1" parent="3Gkvo5IfDIDSTP5R8mcX-15">
          <mxGeometry y="120" width="180" height="30" as="geometry" />
        </mxCell>
        <mxCell id="3Gkvo5IfDIDSTP5R8mcX-23" value="" style="shape=partialRectangle;connectable=0;fillColor=none;top=0;left=0;bottom=0;right=0;editable=1;overflow=hidden;" vertex="1" parent="3Gkvo5IfDIDSTP5R8mcX-22">
          <mxGeometry width="30" height="30" as="geometry" />
        </mxCell>
        <mxCell id="3Gkvo5IfDIDSTP5R8mcX-24" value="Address" style="shape=partialRectangle;connectable=0;fillColor=none;top=0;left=0;bottom=0;right=0;align=left;spacingLeft=6;overflow=hidden;" vertex="1" parent="3Gkvo5IfDIDSTP5R8mcX-22">
          <mxGeometry x="30" width="150" height="30" as="geometry" />
        </mxCell>
        <mxCell id="3Gkvo5IfDIDSTP5R8mcX-28" value="" style="edgeStyle=orthogonalEdgeStyle;fontSize=12;html=1;endArrow=ERzeroToMany;startArrow=ERmandOne;exitX=0.5;exitY=1;exitDx=0;exitDy=0;entryX=0.5;entryY=0;entryDx=0;entryDy=0;dashed=1;" edge="1" parent="1" source="3Gkvo5IfDIDSTP5R8mcX-2" target="3Gkvo5IfDIDSTP5R8mcX-15">
          <mxGeometry width="100" height="100" relative="1" as="geometry">
            <mxPoint x="280" y="620" as="sourcePoint" />
            <mxPoint x="380" y="520" as="targetPoint" />
          </mxGeometry>
        </mxCell>
        <mxCell id="3Gkvo5IfDIDSTP5R8mcX-33" value="Salaried" style="shape=table;startSize=30;container=1;collapsible=1;childLayout=tableLayout;fixedRows=1;rowLines=0;fontStyle=1;align=center;resizeLast=1;" vertex="1" parent="1">
          <mxGeometry x="50" y="515" width="170" height="140" as="geometry" />
        </mxCell>
        <mxCell id="3Gkvo5IfDIDSTP5R8mcX-34" value="" style="shape=partialRectangle;collapsible=0;dropTarget=0;pointerEvents=0;fillColor=none;top=0;left=0;bottom=1;right=0;points=[[0,0.5],[1,0.5]];portConstraint=eastwest;" vertex="1" parent="3Gkvo5IfDIDSTP5R8mcX-33">
          <mxGeometry y="30" width="170" height="30" as="geometry" />
        </mxCell>
        <mxCell id="3Gkvo5IfDIDSTP5R8mcX-35" value="PK,FK" style="shape=partialRectangle;connectable=0;fillColor=none;top=0;left=0;bottom=0;right=0;fontStyle=1;overflow=hidden;" vertex="1" parent="3Gkvo5IfDIDSTP5R8mcX-34">
          <mxGeometry width="60" height="30" as="geometry" />
        </mxCell>
        <mxCell id="3Gkvo5IfDIDSTP5R8mcX-36" value="Employee_Num" style="shape=partialRectangle;connectable=0;fillColor=none;top=0;left=0;bottom=0;right=0;align=left;spacingLeft=6;fontStyle=5;overflow=hidden;" vertex="1" parent="3Gkvo5IfDIDSTP5R8mcX-34">
          <mxGeometry x="60" width="110" height="30" as="geometry" />
        </mxCell>
        <mxCell id="3Gkvo5IfDIDSTP5R8mcX-37" value="" style="shape=partialRectangle;collapsible=0;dropTarget=0;pointerEvents=0;fillColor=none;top=0;left=0;bottom=0;right=0;points=[[0,0.5],[1,0.5]];portConstraint=eastwest;" vertex="1" parent="3Gkvo5IfDIDSTP5R8mcX-33">
          <mxGeometry y="60" width="170" height="30" as="geometry" />
        </mxCell>
        <mxCell id="3Gkvo5IfDIDSTP5R8mcX-38" value="" style="shape=partialRectangle;connectable=0;fillColor=none;top=0;left=0;bottom=0;right=0;editable=1;overflow=hidden;" vertex="1" parent="3Gkvo5IfDIDSTP5R8mcX-37">
          <mxGeometry width="60" height="30" as="geometry" />
        </mxCell>
        <mxCell id="3Gkvo5IfDIDSTP5R8mcX-39" value="Yearly_Salary" style="shape=partialRectangle;connectable=0;fillColor=none;top=0;left=0;bottom=0;right=0;align=left;spacingLeft=6;overflow=hidden;" vertex="1" parent="3Gkvo5IfDIDSTP5R8mcX-37">
          <mxGeometry x="60" width="110" height="30" as="geometry" />
        </mxCell>
        <mxCell id="3Gkvo5IfDIDSTP5R8mcX-40" value="" style="shape=partialRectangle;collapsible=0;dropTarget=0;pointerEvents=0;fillColor=none;top=0;left=0;bottom=0;right=0;points=[[0,0.5],[1,0.5]];portConstraint=eastwest;" vertex="1" parent="3Gkvo5IfDIDSTP5R8mcX-33">
          <mxGeometry y="90" width="170" height="30" as="geometry" />
        </mxCell>
        <mxCell id="3Gkvo5IfDIDSTP5R8mcX-41" value="" style="shape=partialRectangle;connectable=0;fillColor=none;top=0;left=0;bottom=0;right=0;editable=1;overflow=hidden;" vertex="1" parent="3Gkvo5IfDIDSTP5R8mcX-40">
          <mxGeometry width="60" height="30" as="geometry" />
        </mxCell>
        <mxCell id="3Gkvo5IfDIDSTP5R8mcX-42" value="Is_Salespeople" style="shape=partialRectangle;connectable=0;fillColor=none;top=0;left=0;bottom=0;right=0;align=left;spacingLeft=6;overflow=hidden;" vertex="1" parent="3Gkvo5IfDIDSTP5R8mcX-40">
          <mxGeometry x="60" width="110" height="30" as="geometry" />
        </mxCell>
        <mxCell id="3Gkvo5IfDIDSTP5R8mcX-43" value="" style="shape=partialRectangle;collapsible=0;dropTarget=0;pointerEvents=0;fillColor=none;top=0;left=0;bottom=0;right=0;points=[[0,0.5],[1,0.5]];portConstraint=eastwest;" vertex="1" parent="3Gkvo5IfDIDSTP5R8mcX-33">
          <mxGeometry y="120" width="170" height="20" as="geometry" />
        </mxCell>
        <mxCell id="3Gkvo5IfDIDSTP5R8mcX-44" value="" style="shape=partialRectangle;connectable=0;fillColor=none;top=0;left=0;bottom=0;right=0;editable=1;overflow=hidden;" vertex="1" parent="3Gkvo5IfDIDSTP5R8mcX-43">
          <mxGeometry width="60" height="20" as="geometry" />
        </mxCell>
        <mxCell id="3Gkvo5IfDIDSTP5R8mcX-45" value="" style="shape=partialRectangle;connectable=0;fillColor=none;top=0;left=0;bottom=0;right=0;align=left;spacingLeft=6;overflow=hidden;" vertex="1" parent="3Gkvo5IfDIDSTP5R8mcX-43">
          <mxGeometry x="60" width="110" height="20" as="geometry" />
        </mxCell>
        <mxCell id="3Gkvo5IfDIDSTP5R8mcX-64" value="Hourly" style="shape=table;startSize=30;container=1;collapsible=1;childLayout=tableLayout;fixedRows=1;rowLines=0;fontStyle=1;align=center;resizeLast=1;" vertex="1" parent="1">
          <mxGeometry x="240" y="510" width="160" height="150" as="geometry" />
        </mxCell>
        <mxCell id="3Gkvo5IfDIDSTP5R8mcX-65" value="" style="shape=partialRectangle;collapsible=0;dropTarget=0;pointerEvents=0;fillColor=none;top=0;left=0;bottom=1;right=0;points=[[0,0.5],[1,0.5]];portConstraint=eastwest;" vertex="1" parent="3Gkvo5IfDIDSTP5R8mcX-64">
          <mxGeometry y="30" width="160" height="30" as="geometry" />
        </mxCell>
        <mxCell id="3Gkvo5IfDIDSTP5R8mcX-66" value="PK,FK" style="shape=partialRectangle;connectable=0;fillColor=none;top=0;left=0;bottom=0;right=0;fontStyle=1;overflow=hidden;" vertex="1" parent="3Gkvo5IfDIDSTP5R8mcX-65">
          <mxGeometry width="60" height="30" as="geometry" />
        </mxCell>
        <mxCell id="3Gkvo5IfDIDSTP5R8mcX-67" value="Employee_Num" style="shape=partialRectangle;connectable=0;fillColor=none;top=0;left=0;bottom=0;right=0;align=left;spacingLeft=6;fontStyle=5;overflow=hidden;" vertex="1" parent="3Gkvo5IfDIDSTP5R8mcX-65">
          <mxGeometry x="60" width="100" height="30" as="geometry" />
        </mxCell>
        <mxCell id="3Gkvo5IfDIDSTP5R8mcX-68" value="" style="shape=partialRectangle;collapsible=0;dropTarget=0;pointerEvents=0;fillColor=none;top=0;left=0;bottom=0;right=0;points=[[0,0.5],[1,0.5]];portConstraint=eastwest;" vertex="1" parent="3Gkvo5IfDIDSTP5R8mcX-64">
          <mxGeometry y="60" width="160" height="30" as="geometry" />
        </mxCell>
        <mxCell id="3Gkvo5IfDIDSTP5R8mcX-69" value="" style="shape=partialRectangle;connectable=0;fillColor=none;top=0;left=0;bottom=0;right=0;editable=1;overflow=hidden;" vertex="1" parent="3Gkvo5IfDIDSTP5R8mcX-68">
          <mxGeometry width="60" height="30" as="geometry" />
        </mxCell>
        <mxCell id="3Gkvo5IfDIDSTP5R8mcX-70" value="Hourly_wage" style="shape=partialRectangle;connectable=0;fillColor=none;top=0;left=0;bottom=0;right=0;align=left;spacingLeft=6;overflow=hidden;" vertex="1" parent="3Gkvo5IfDIDSTP5R8mcX-68">
          <mxGeometry x="60" width="100" height="30" as="geometry" />
        </mxCell>
        <mxCell id="3Gkvo5IfDIDSTP5R8mcX-71" value="" style="shape=partialRectangle;collapsible=0;dropTarget=0;pointerEvents=0;fillColor=none;top=0;left=0;bottom=0;right=0;points=[[0,0.5],[1,0.5]];portConstraint=eastwest;" vertex="1" parent="3Gkvo5IfDIDSTP5R8mcX-64">
          <mxGeometry y="90" width="160" height="30" as="geometry" />
        </mxCell>
        <mxCell id="3Gkvo5IfDIDSTP5R8mcX-72" value="" style="shape=partialRectangle;connectable=0;fillColor=none;top=0;left=0;bottom=0;right=0;editable=1;overflow=hidden;" vertex="1" parent="3Gkvo5IfDIDSTP5R8mcX-71">
          <mxGeometry width="60" height="30" as="geometry" />
        </mxCell>
        <mxCell id="3Gkvo5IfDIDSTP5R8mcX-73" value="Weekly_Hours" style="shape=partialRectangle;connectable=0;fillColor=none;top=0;left=0;bottom=0;right=0;align=left;spacingLeft=6;overflow=hidden;" vertex="1" parent="3Gkvo5IfDIDSTP5R8mcX-71">
          <mxGeometry x="60" width="100" height="30" as="geometry" />
        </mxCell>
        <mxCell id="3Gkvo5IfDIDSTP5R8mcX-74" value="" style="shape=partialRectangle;collapsible=0;dropTarget=0;pointerEvents=0;fillColor=none;top=0;left=0;bottom=0;right=0;points=[[0,0.5],[1,0.5]];portConstraint=eastwest;" vertex="1" parent="3Gkvo5IfDIDSTP5R8mcX-64">
          <mxGeometry y="120" width="160" height="30" as="geometry" />
        </mxCell>
        <mxCell id="3Gkvo5IfDIDSTP5R8mcX-75" value="" style="shape=partialRectangle;connectable=0;fillColor=none;top=0;left=0;bottom=0;right=0;editable=1;overflow=hidden;" vertex="1" parent="3Gkvo5IfDIDSTP5R8mcX-74">
          <mxGeometry width="60" height="30" as="geometry" />
        </mxCell>
        <mxCell id="3Gkvo5IfDIDSTP5R8mcX-76" value="" style="shape=partialRectangle;connectable=0;fillColor=none;top=0;left=0;bottom=0;right=0;align=left;spacingLeft=6;overflow=hidden;" vertex="1" parent="3Gkvo5IfDIDSTP5R8mcX-74">
          <mxGeometry x="60" width="100" height="30" as="geometry" />
        </mxCell>
        <mxCell id="3Gkvo5IfDIDSTP5R8mcX-77" value="Contract" style="shape=table;startSize=30;container=1;collapsible=1;childLayout=tableLayout;fixedRows=1;rowLines=0;fontStyle=1;align=center;resizeLast=1;" vertex="1" parent="1">
          <mxGeometry x="430" y="510" width="160" height="150" as="geometry" />
        </mxCell>
        <mxCell id="3Gkvo5IfDIDSTP5R8mcX-78" value="" style="shape=partialRectangle;collapsible=0;dropTarget=0;pointerEvents=0;fillColor=none;top=0;left=0;bottom=1;right=0;points=[[0,0.5],[1,0.5]];portConstraint=eastwest;" vertex="1" parent="3Gkvo5IfDIDSTP5R8mcX-77">
          <mxGeometry y="30" width="160" height="30" as="geometry" />
        </mxCell>
        <mxCell id="3Gkvo5IfDIDSTP5R8mcX-79" value="PK,FK" style="shape=partialRectangle;connectable=0;fillColor=none;top=0;left=0;bottom=0;right=0;fontStyle=1;overflow=hidden;" vertex="1" parent="3Gkvo5IfDIDSTP5R8mcX-78">
          <mxGeometry width="50" height="30" as="geometry" />
        </mxCell>
        <mxCell id="3Gkvo5IfDIDSTP5R8mcX-80" value="Employee_Num" style="shape=partialRectangle;connectable=0;fillColor=none;top=0;left=0;bottom=0;right=0;align=left;spacingLeft=6;fontStyle=5;overflow=hidden;" vertex="1" parent="3Gkvo5IfDIDSTP5R8mcX-78">
          <mxGeometry x="50" width="110" height="30" as="geometry" />
        </mxCell>
        <mxCell id="3Gkvo5IfDIDSTP5R8mcX-81" value="" style="shape=partialRectangle;collapsible=0;dropTarget=0;pointerEvents=0;fillColor=none;top=0;left=0;bottom=0;right=0;points=[[0,0.5],[1,0.5]];portConstraint=eastwest;" vertex="1" parent="3Gkvo5IfDIDSTP5R8mcX-77">
          <mxGeometry y="60" width="160" height="30" as="geometry" />
        </mxCell>
        <mxCell id="3Gkvo5IfDIDSTP5R8mcX-82" value="" style="shape=partialRectangle;connectable=0;fillColor=none;top=0;left=0;bottom=0;right=0;editable=1;overflow=hidden;" vertex="1" parent="3Gkvo5IfDIDSTP5R8mcX-81">
          <mxGeometry width="50" height="30" as="geometry" />
        </mxCell>
        <mxCell id="3Gkvo5IfDIDSTP5R8mcX-83" value="Date_Begin" style="shape=partialRectangle;connectable=0;fillColor=none;top=0;left=0;bottom=0;right=0;align=left;spacingLeft=6;overflow=hidden;" vertex="1" parent="3Gkvo5IfDIDSTP5R8mcX-81">
          <mxGeometry x="50" width="110" height="30" as="geometry" />
        </mxCell>
        <mxCell id="3Gkvo5IfDIDSTP5R8mcX-84" value="" style="shape=partialRectangle;collapsible=0;dropTarget=0;pointerEvents=0;fillColor=none;top=0;left=0;bottom=0;right=0;points=[[0,0.5],[1,0.5]];portConstraint=eastwest;" vertex="1" parent="3Gkvo5IfDIDSTP5R8mcX-77">
          <mxGeometry y="90" width="160" height="30" as="geometry" />
        </mxCell>
        <mxCell id="3Gkvo5IfDIDSTP5R8mcX-85" value="" style="shape=partialRectangle;connectable=0;fillColor=none;top=0;left=0;bottom=0;right=0;editable=1;overflow=hidden;" vertex="1" parent="3Gkvo5IfDIDSTP5R8mcX-84">
          <mxGeometry width="50" height="30" as="geometry" />
        </mxCell>
        <mxCell id="3Gkvo5IfDIDSTP5R8mcX-86" value="Date_End" style="shape=partialRectangle;connectable=0;fillColor=none;top=0;left=0;bottom=0;right=0;align=left;spacingLeft=6;overflow=hidden;" vertex="1" parent="3Gkvo5IfDIDSTP5R8mcX-84">
          <mxGeometry x="50" width="110" height="30" as="geometry" />
        </mxCell>
        <mxCell id="3Gkvo5IfDIDSTP5R8mcX-87" value="" style="shape=partialRectangle;collapsible=0;dropTarget=0;pointerEvents=0;fillColor=none;top=0;left=0;bottom=0;right=0;points=[[0,0.5],[1,0.5]];portConstraint=eastwest;" vertex="1" parent="3Gkvo5IfDIDSTP5R8mcX-77">
          <mxGeometry y="120" width="160" height="30" as="geometry" />
        </mxCell>
        <mxCell id="3Gkvo5IfDIDSTP5R8mcX-88" value="" style="shape=partialRectangle;connectable=0;fillColor=none;top=0;left=0;bottom=0;right=0;editable=1;overflow=hidden;" vertex="1" parent="3Gkvo5IfDIDSTP5R8mcX-87">
          <mxGeometry width="50" height="30" as="geometry" />
        </mxCell>
        <mxCell id="3Gkvo5IfDIDSTP5R8mcX-89" value="Billing_Rate" style="shape=partialRectangle;connectable=0;fillColor=none;top=0;left=0;bottom=0;right=0;align=left;spacingLeft=6;overflow=hidden;" vertex="1" parent="3Gkvo5IfDIDSTP5R8mcX-87">
          <mxGeometry x="50" width="110" height="30" as="geometry" />
        </mxCell>
        <mxCell id="3Gkvo5IfDIDSTP5R8mcX-90" value="Salespeople" style="shape=table;startSize=30;container=1;collapsible=1;childLayout=tableLayout;fixedRows=1;rowLines=0;fontStyle=1;align=center;resizeLast=1;" vertex="1" parent="1">
          <mxGeometry x="45" y="750" width="155" height="150" as="geometry" />
        </mxCell>
        <mxCell id="3Gkvo5IfDIDSTP5R8mcX-91" value="" style="shape=partialRectangle;collapsible=0;dropTarget=0;pointerEvents=0;fillColor=none;top=0;left=0;bottom=1;right=0;points=[[0,0.5],[1,0.5]];portConstraint=eastwest;" vertex="1" parent="3Gkvo5IfDIDSTP5R8mcX-90">
          <mxGeometry y="30" width="155" height="30" as="geometry" />
        </mxCell>
        <mxCell id="3Gkvo5IfDIDSTP5R8mcX-92" value="PK" style="shape=partialRectangle;connectable=0;fillColor=none;top=0;left=0;bottom=0;right=0;fontStyle=1;overflow=hidden;" vertex="1" parent="3Gkvo5IfDIDSTP5R8mcX-91">
          <mxGeometry width="30" height="30" as="geometry" />
        </mxCell>
        <mxCell id="3Gkvo5IfDIDSTP5R8mcX-93" value="Employee_Num" style="shape=partialRectangle;connectable=0;fillColor=none;top=0;left=0;bottom=0;right=0;align=left;spacingLeft=6;fontStyle=5;overflow=hidden;" vertex="1" parent="3Gkvo5IfDIDSTP5R8mcX-91">
          <mxGeometry x="30" width="125" height="30" as="geometry" />
        </mxCell>
        <mxCell id="3Gkvo5IfDIDSTP5R8mcX-94" value="" style="shape=partialRectangle;collapsible=0;dropTarget=0;pointerEvents=0;fillColor=none;top=0;left=0;bottom=0;right=0;points=[[0,0.5],[1,0.5]];portConstraint=eastwest;" vertex="1" parent="3Gkvo5IfDIDSTP5R8mcX-90">
          <mxGeometry y="60" width="155" height="30" as="geometry" />
        </mxCell>
        <mxCell id="3Gkvo5IfDIDSTP5R8mcX-95" value="" style="shape=partialRectangle;connectable=0;fillColor=none;top=0;left=0;bottom=0;right=0;editable=1;overflow=hidden;" vertex="1" parent="3Gkvo5IfDIDSTP5R8mcX-94">
          <mxGeometry width="30" height="30" as="geometry" />
        </mxCell>
        <mxCell id="3Gkvo5IfDIDSTP5R8mcX-96" value="Commission_Sales" style="shape=partialRectangle;connectable=0;fillColor=none;top=0;left=0;bottom=0;right=0;align=left;spacingLeft=6;overflow=hidden;" vertex="1" parent="3Gkvo5IfDIDSTP5R8mcX-94">
          <mxGeometry x="30" width="125" height="30" as="geometry" />
        </mxCell>
        <mxCell id="3Gkvo5IfDIDSTP5R8mcX-97" value="" style="shape=partialRectangle;collapsible=0;dropTarget=0;pointerEvents=0;fillColor=none;top=0;left=0;bottom=0;right=0;points=[[0,0.5],[1,0.5]];portConstraint=eastwest;" vertex="1" parent="3Gkvo5IfDIDSTP5R8mcX-90">
          <mxGeometry y="90" width="155" height="30" as="geometry" />
        </mxCell>
        <mxCell id="3Gkvo5IfDIDSTP5R8mcX-98" value="" style="shape=partialRectangle;connectable=0;fillColor=none;top=0;left=0;bottom=0;right=0;editable=1;overflow=hidden;" vertex="1" parent="3Gkvo5IfDIDSTP5R8mcX-97">
          <mxGeometry width="30" height="30" as="geometry" />
        </mxCell>
        <mxCell id="3Gkvo5IfDIDSTP5R8mcX-99" value="Commission_Profit" style="shape=partialRectangle;connectable=0;fillColor=none;top=0;left=0;bottom=0;right=0;align=left;spacingLeft=6;overflow=hidden;" vertex="1" parent="3Gkvo5IfDIDSTP5R8mcX-97">
          <mxGeometry x="30" width="125" height="30" as="geometry" />
        </mxCell>
        <mxCell id="3Gkvo5IfDIDSTP5R8mcX-100" value="" style="shape=partialRectangle;collapsible=0;dropTarget=0;pointerEvents=0;fillColor=none;top=0;left=0;bottom=0;right=0;points=[[0,0.5],[1,0.5]];portConstraint=eastwest;" vertex="1" parent="3Gkvo5IfDIDSTP5R8mcX-90">
          <mxGeometry y="120" width="155" height="30" as="geometry" />
        </mxCell>
        <mxCell id="3Gkvo5IfDIDSTP5R8mcX-101" value="" style="shape=partialRectangle;connectable=0;fillColor=none;top=0;left=0;bottom=0;right=0;editable=1;overflow=hidden;" vertex="1" parent="3Gkvo5IfDIDSTP5R8mcX-100">
          <mxGeometry width="30" height="30" as="geometry" />
        </mxCell>
        <mxCell id="3Gkvo5IfDIDSTP5R8mcX-102" value="" style="shape=partialRectangle;connectable=0;fillColor=none;top=0;left=0;bottom=0;right=0;align=left;spacingLeft=6;overflow=hidden;" vertex="1" parent="3Gkvo5IfDIDSTP5R8mcX-100">
          <mxGeometry x="30" width="125" height="30" as="geometry" />
        </mxCell>
      </root>
    </mxGraphModel>
  </diagram>
</mxfile>
